<svg width="575" height="47" viewBox="0 0 575 47" fill="none" xmlns="http://www.w3.org/2000/svg">
<path d="M0.0800061 46V1.2H22.992C28.88 1.2 33.2747 2.288 36.176 4.464C39.0773 6.59733 40.528 9.41333 40.528 12.912C40.528 15.216 39.9093 17.2427 38.672 18.992C37.4773 20.6987 35.7707 22.064 33.552 23.088C31.376 24.0693 28.7733 24.56 25.744 24.56L27.024 21.488C30.1813 21.488 32.9333 21.9787 35.28 22.96C37.6267 23.8987 39.44 25.2853 40.72 27.12C42.0427 28.912 42.704 31.1093 42.704 33.712C42.704 37.5947 41.1253 40.624 37.968 42.8C34.8533 44.9333 30.288 46 24.272 46H0.0800061ZM12.624 36.848H23.248C25.424 36.848 27.0667 36.4853 28.176 35.76C29.328 34.992 29.904 33.84 29.904 32.304C29.904 30.768 29.328 29.6373 28.176 28.912C27.0667 28.144 25.424 27.76 23.248 27.76H11.728V18.992H21.328C23.4613 18.992 25.0613 18.6293 26.128 17.904C27.1947 17.1787 27.728 16.0907 27.728 14.64C27.728 13.1893 27.1947 12.1227 26.128 11.44C25.0613 10.7147 23.4613 10.352 21.328 10.352H12.624V36.848ZM77.6195 46.896C71.0062 46.896 65.8435 45.0827 62.1315 41.456C58.4195 37.8293 56.5635 32.688 56.5635 26.032V1.2H69.2355V25.648C69.2355 29.488 69.9822 32.24 71.4755 33.904C73.0115 35.568 75.1022 36.4 77.7475 36.4C80.3928 36.4 82.4622 35.568 83.9555 33.904C85.4488 32.24 86.1955 29.488 86.1955 25.648V1.2H98.6755V26.032C98.6755 32.688 96.8195 37.8293 93.1075 41.456C89.3955 45.0827 84.2328 46.896 77.6195 46.896ZM114.94 46V1.2H136.124C141.073 1.2 145.425 2.11733 149.18 3.952C152.935 5.78667 155.857 8.368 157.948 11.696C160.081 15.024 161.148 18.992 161.148 23.6C161.148 28.1653 160.081 32.1333 157.948 35.504C155.857 38.832 152.935 41.4133 149.18 43.248C145.425 45.0827 141.073 46 136.124 46H114.94ZM127.612 35.888H135.612C138.172 35.888 140.391 35.4187 142.268 34.48C144.188 33.4987 145.681 32.0907 146.748 30.256C147.815 28.3787 148.348 26.16 148.348 23.6C148.348 20.9973 147.815 18.7787 146.748 16.944C145.681 15.1093 144.188 13.7227 142.268 12.784C140.391 11.8027 138.172 11.312 135.612 11.312H127.612V35.888ZM197.895 46.896C194.354 46.896 191.068 46.3413 188.039 45.232C185.01 44.08 182.386 42.4587 180.167 40.368C177.991 38.2773 176.284 35.824 175.047 33.008C173.81 30.1493 173.191 27.0133 173.191 23.6C173.191 20.1867 173.81 17.072 175.047 14.256C176.284 11.3973 178.012 8.92266 180.231 6.832C182.45 4.74133 185.074 3.14133 188.103 2.032C191.175 0.879997 194.524 0.303997 198.151 0.303997C202.375 0.303997 206.151 1.008 209.479 2.416C212.807 3.824 215.559 5.85067 217.735 8.496L209.671 15.792C208.135 14.128 206.471 12.8907 204.679 12.08C202.93 11.2267 200.967 10.8 198.791 10.8C196.871 10.8 195.122 11.0987 193.543 11.696C191.964 12.2933 190.62 13.168 189.511 14.32C188.402 15.4293 187.527 16.7733 186.887 18.352C186.29 19.888 185.991 21.6373 185.991 23.6C185.991 25.4773 186.29 27.2053 186.887 28.784C187.527 30.3627 188.402 31.728 189.511 32.88C190.62 33.9893 191.943 34.864 193.479 35.504C195.058 36.1013 196.786 36.4 198.663 36.4C200.54 36.4 202.375 36.1013 204.167 35.504C205.959 34.864 207.772 33.7973 209.607 32.304L216.711 41.2C214.151 43.0347 211.186 44.4427 207.815 45.424C204.444 46.4053 201.138 46.896 197.895 46.896ZM205.511 39.536V22.64H216.711V41.2L205.511 39.536ZM244.073 18.544H264.873V28.016H244.073V18.544ZM244.969 36.208H268.393V46H232.425V1.2H267.561V10.992H244.969V36.208ZM292.641 46V11.248H278.881V1.2H319.009V11.248H305.313V46H292.641ZM353.121 46.896C349.58 46.896 346.294 46.3413 343.265 45.232C340.278 44.08 337.676 42.4587 335.457 40.368C333.281 38.2773 331.574 35.824 330.337 33.008C329.1 30.1493 328.481 27.0133 328.481 23.6C328.481 20.1867 329.1 17.072 330.337 14.256C331.574 11.3973 333.281 8.92266 335.457 6.832C337.676 4.74133 340.278 3.14133 343.265 2.032C346.294 0.879997 349.58 0.303997 353.121 0.303997C357.26 0.303997 360.95 1.02933 364.193 2.48C367.478 3.93067 370.209 6.02133 372.385 8.752L364.321 16.048C362.87 14.3413 361.27 13.04 359.521 12.144C357.814 11.248 355.894 10.8 353.761 10.8C351.926 10.8 350.241 11.0987 348.705 11.696C347.169 12.2933 345.846 13.168 344.737 14.32C343.67 15.4293 342.817 16.7733 342.177 18.352C341.58 19.9307 341.281 21.68 341.281 23.6C341.281 25.52 341.58 27.2693 342.177 28.848C342.817 30.4267 343.67 31.792 344.737 32.944C345.846 34.0533 347.169 34.9067 348.705 35.504C350.241 36.1013 351.926 36.4 353.761 36.4C355.894 36.4 357.814 35.952 359.521 35.056C361.27 34.16 362.87 32.8587 364.321 31.152L372.385 38.448C370.209 41.136 367.478 43.2267 364.193 44.72C360.95 46.1707 357.26 46.896 353.121 46.896ZM415.667 1.2H428.339V46H415.667V1.2ZM398.387 46H385.715V1.2H398.387V46ZM416.563 28.528H397.491V18.032H416.563V28.528ZM439.582 46L459.358 1.2H471.838L491.678 46H478.494L463.006 7.408H467.998L452.51 46H439.582ZM450.398 37.296L453.662 27.952H475.55L478.814 37.296H450.398ZM502.95 46V1.2H515.622V46H502.95ZM532.318 46V1.2H542.75L567.454 31.024H562.526V1.2H574.942V46H564.51L539.806 16.176H544.734V46H532.318Z" fill="url(#paint0_linear_50_47)"/>
<defs>
<linearGradient id="paint0_linear_50_47" x1="-74" y1="23" x2="649" y2="23" gradientUnits="userSpaceOnUse">
<stop stop-color="#EBEBEB"/>
<stop offset="1" stop-color="#4F4AE6"/>
</linearGradient>
</defs>
</svg>
