<svg width="157" height="39" viewBox="0 0 157 39" fill="none" xmlns="http://www.w3.org/2000/svg">
<path d="M1.88 19.3291V5.3291H8.44C10.12 5.3291 11.4 5.66243 12.28 6.3291C13.16 6.98243 13.6 7.86243 13.6 8.9691C13.6 9.71577 13.4267 10.3558 13.08 10.8891C12.7333 11.4091 12.2667 11.8158 11.68 12.1091C11.1067 12.3891 10.48 12.5291 9.8 12.5291L10.16 11.8091C10.9467 11.8091 11.6533 11.9558 12.28 12.2491C12.9067 12.5291 13.4 12.9424 13.76 13.4891C14.1333 14.0358 14.32 14.7158 14.32 15.5291C14.32 16.7291 13.86 17.6624 12.94 18.3291C12.02 18.9958 10.6533 19.3291 8.84 19.3291H1.88ZM4.48 17.2891H8.68C9.65333 17.2891 10.4 17.1291 10.92 16.8091C11.44 16.4891 11.7 15.9758 11.7 15.2691C11.7 14.5758 11.44 14.0691 10.92 13.7491C10.4 13.4158 9.65333 13.2491 8.68 13.2491H4.28V11.2291H8.16C9.06667 11.2291 9.76 11.0691 10.24 10.7491C10.7333 10.4291 10.98 9.9491 10.98 9.3091C10.98 8.65577 10.7333 8.1691 10.24 7.8491C9.76 7.5291 9.06667 7.3691 8.16 7.3691H4.48V17.2891ZM23.1148 19.5291C21.1948 19.5291 19.6882 18.9891 18.5948 17.9091C17.5148 16.8291 16.9748 15.2691 16.9748 13.2291V5.3291H19.5748V13.1291C19.5748 14.5691 19.8815 15.6158 20.4948 16.2691C21.1215 16.9224 22.0015 17.2491 23.1348 17.2491C24.2682 17.2491 25.1415 16.9224 25.7548 16.2691C26.3682 15.6158 26.6748 14.5691 26.6748 13.1291V5.3291H29.2348V13.2291C29.2348 15.2691 28.6882 16.8291 27.5948 17.9091C26.5148 18.9891 25.0215 19.5291 23.1148 19.5291ZM32.8761 19.3291V5.3291H38.9961C40.5161 5.3291 41.8494 5.62243 42.9961 6.2091C44.1428 6.79577 45.0361 7.6091 45.6761 8.6491C46.3161 9.6891 46.6361 10.9158 46.6361 12.3291C46.6361 13.7291 46.3161 14.9558 45.6761 16.0091C45.0361 17.0491 44.1428 17.8624 42.9961 18.4491C41.8494 19.0358 40.5161 19.3291 38.9961 19.3291H32.8761ZM35.4761 17.1291H38.8761C39.9294 17.1291 40.8361 16.9291 41.5961 16.5291C42.3694 16.1291 42.9628 15.5691 43.3761 14.8491C43.8028 14.1291 44.0161 13.2891 44.0161 12.3291C44.0161 11.3558 43.8028 10.5158 43.3761 9.8091C42.9628 9.0891 42.3694 8.5291 41.5961 8.1291C40.8361 7.7291 39.9294 7.5291 38.8761 7.5291H35.4761V17.1291ZM55.9395 19.5291C54.8462 19.5291 53.8395 19.3558 52.9195 19.0091C52.0129 18.6491 51.2195 18.1491 50.5395 17.5091C49.8595 16.8558 49.3329 16.0891 48.9595 15.2091C48.5862 14.3291 48.3995 13.3691 48.3995 12.3291C48.3995 11.2891 48.5862 10.3291 48.9595 9.4491C49.3329 8.5691 49.8595 7.8091 50.5395 7.1691C51.2329 6.51577 52.0395 6.01577 52.9595 5.6691C53.8795 5.3091 54.8862 5.1291 55.9795 5.1291C57.1662 5.1291 58.2329 5.32243 59.1795 5.7091C60.1395 6.09577 60.9462 6.66243 61.5995 7.4091L59.9595 9.0091C59.4129 8.46243 58.8195 8.06243 58.1795 7.8091C57.5529 7.54243 56.8595 7.4091 56.0995 7.4091C55.3662 7.4091 54.6862 7.5291 54.0595 7.7691C53.4329 8.0091 52.8929 8.3491 52.4395 8.7891C51.9862 9.2291 51.6329 9.7491 51.3795 10.3491C51.1395 10.9491 51.0195 11.6091 51.0195 12.3291C51.0195 13.0358 51.1395 13.6891 51.3795 14.2891C51.6329 14.8891 51.9862 15.4158 52.4395 15.8691C52.8929 16.3091 53.4262 16.6491 54.0395 16.8891C54.6529 17.1291 55.3329 17.2491 56.0795 17.2491C56.7729 17.2491 57.4395 17.1424 58.0795 16.9291C58.7329 16.7024 59.3529 16.3291 59.9395 15.8091L61.4195 17.7491C60.6862 18.3358 59.8329 18.7824 58.8595 19.0891C57.8995 19.3824 56.9262 19.5291 55.9395 19.5291ZM58.9595 17.4091V12.1691H61.4195V17.7491L58.9595 17.4091ZM67.2488 11.1491H74.2088V13.2891H67.2488V11.1491ZM67.4488 17.1491H75.3488V19.3291H64.8488V5.3291H75.0688V7.5091H67.4488V17.1491ZM81.0872 19.3291V7.5291H76.4472V5.3291H88.3272V7.5291H83.6872V19.3291H81.0872ZM96.5631 19.5291C95.4965 19.5291 94.5031 19.3558 93.5831 19.0091C92.6765 18.6491 91.8831 18.1491 91.2031 17.5091C90.5365 16.8558 90.0165 16.0891 89.6431 15.2091C89.2698 14.3291 89.0831 13.3691 89.0831 12.3291C89.0831 11.2891 89.2698 10.3291 89.6431 9.4491C90.0165 8.5691 90.5431 7.8091 91.2231 7.1691C91.9031 6.51577 92.6965 6.01577 93.6031 5.6691C94.5098 5.3091 95.5031 5.1291 96.5831 5.1291C97.7298 5.1291 98.7765 5.3291 99.7231 5.7291C100.67 6.11577 101.47 6.69577 102.123 7.4691L100.443 9.0491C99.9365 8.50243 99.3698 8.09577 98.7431 7.8291C98.1165 7.5491 97.4365 7.4091 96.7031 7.4091C95.9698 7.4091 95.2965 7.5291 94.6831 7.7691C94.0831 8.0091 93.5565 8.3491 93.1031 8.7891C92.6631 9.2291 92.3165 9.7491 92.0631 10.3491C91.8231 10.9491 91.7031 11.6091 91.7031 12.3291C91.7031 13.0491 91.8231 13.7091 92.0631 14.3091C92.3165 14.9091 92.6631 15.4291 93.1031 15.8691C93.5565 16.3091 94.0831 16.6491 94.6831 16.8891C95.2965 17.1291 95.9698 17.2491 96.7031 17.2491C97.4365 17.2491 98.1165 17.1158 98.7431 16.8491C99.3698 16.5691 99.9365 16.1491 100.443 15.5891L102.123 17.1891C101.47 17.9491 100.67 18.5291 99.7231 18.9291C98.7765 19.3291 97.7231 19.5291 96.5631 19.5291ZM114.454 5.3291H117.054V19.3291H114.454V5.3291ZM107.214 19.3291H104.614V5.3291H107.214V19.3291ZM114.654 13.3291H106.994V11.1091H114.654V13.3291ZM118.826 19.3291L125.126 5.3291H127.686L134.006 19.3291H131.286L125.866 6.7091H126.906L121.506 19.3291H118.826ZM121.726 16.0891L122.426 14.0491H129.986L130.686 16.0891H121.726ZM135.786 19.3291V5.3291H138.386V19.3291H135.786ZM142.173 19.3291V5.3291H144.313L153.093 16.1091H152.033V5.3291H154.613V19.3291H152.473L143.693 8.5491H144.753V19.3291H142.173Z" fill="white"/>
<path d="M0 24.3291C130.5 24.3291 140.5 30.171 152.5 37.6709" stroke="#4F4AE6" stroke-width="3"/>
</svg>
